<?xml version="1.0" encoding="UTF-8"?>
<svg id="Layer_2" data-name="Layer 2" xmlns="http://www.w3.org/2000/svg" viewBox="0 0 609.63 54.08">
  <defs>
    <style>
      .cls-1 {
        fill: #353535;
      }
    </style>
  </defs>
  <g id="Layer_1-2" data-name="Layer 1">
    <g>
      <path class="cls-1" d="m93.47,32.35c0,3.11-1.36,5.82-3.55,7.85-2.25,2.1-5.34,3.25-8.71,3.25s-6.64-1.15-8.65-3.25c-2.25-2.03-3.74-4.74-3.74-7.85V.75h-10.31v32.62c0,5.89,2.43,10.9,6.58,14.69,4.15,3.79,9.66,6.02,16.12,6.02s12.03-2.23,16.18-6.02c3.97-3.79,6.64-8.8,6.64-14.69V.75h-10.55v31.61Z"/>
      <polygon class="cls-1" points="112.07 11.03 128.78 11.03 128.78 52.79 140.22 52.79 140.22 11.03 156.76 11.03 156.76 .88 112.07 .88 112.07 11.03"/>
      <polygon class="cls-1" points="175.77 31.74 196.04 31.74 196.04 21.93 175.77 21.93 175.77 11.58 206.42 11.58 206.42 .88 164.8 .88 164.8 52.79 207.01 52.79 207.01 42.03 175.77 42.03 175.77 31.74"/>
      <polygon class="cls-1" points="251.63 36.21 226.38 .88 214.52 .88 214.52 52.79 225.72 52.79 225.72 16.31 251.63 52.79 262.77 52.79 262.77 .88 251.63 .88 251.63 36.21"/>
      <polygon class="cls-1" points="270.87 11.03 287.59 11.03 287.59 52.79 299.03 52.79 299.03 11.03 315.57 11.03 315.57 .88 270.87 .88 270.87 11.03"/>
      <rect class="cls-1" x="323.61" y=".88" width="11.38" height="51.91"/>
      <path class="cls-1" d="m368.34,9.48c5.15,0,9.13,2.5,12.52,5.08l6.69-6.02c-4.99-5.08-11.67-8.53-19.21-8.53-14.32,0-26.1,13-26.1,27.41s11.78,26.6,26.1,26.6c7.53,0,14.22-2.5,19.21-7.78l-6.69-6.84c-3.34,3.38-7.53,5.08-12.52,5.08-9.34,0-16.77-7.58-16.77-17.06s7.43-17.94,16.77-17.94Z"/>
      <polygon class="cls-1" points="463.14 .88 451.76 .88 451.76 52.79 487.98 52.79 487.98 42.17 463.14 42.17 463.14 .88"/>
      <rect class="cls-1" x="496.02" y=".88" width="11.38" height="51.91"/>
      <polygon class="cls-1" points="517.83 .88 517.83 10.69 542.37 10.69 515.52 52.79 559.32 52.79 559.32 42.78 532.65 42.78 559.32 .88 517.83 .88"/>
      <polygon class="cls-1" points="578.39 42.03 578.39 31.74 598.67 31.74 598.67 21.93 578.39 21.93 578.39 11.58 609.04 11.58 609.04 .88 567.43 .88 567.43 52.79 609.63 52.79 609.63 42.03 578.39 42.03"/>
      <path class="cls-1" d="m25.7.4L.26,46.64l-.26.48,6.23,6.2.51-.47c.39-.36,9.75-8.83,21.02-8.83,12.04,0,20.53,8.35,20.88,8.7l.49.49,6.47-5.86L32.77.61l-7.07-.21Zm14.91,36.39c-4.22-1.62-8.54-2.44-12.84-2.44-3.86,0-7.82.73-11.8,2.18l12.99-23.6,11.66,23.86Z"/>
      <path class="cls-1" d="m416.5.4l-25.04,46.67-.25.47,6.14,6.27.52-.5c.09-.09,9.4-8.91,20.67-8.91,11.9,0,20.46,8.69,20.54,8.78l.49.51,6.38-5.92L423.49.61l-6.99-.21Zm14.68,36.74c-4.15-1.63-8.39-2.45-12.64-2.45-3.8,0-7.69.74-11.61,2.2l12.78-23.81,11.47,24.07Z"/>
    </g>
  </g>
</svg>